#!OML:ASF Y:\EmotionMaleHayes\Project 1\Capture day 1\Session 1\Male1.ASF
:FULLY-SPECIFIED
:DEGREES
81
root 15.3255 16.5225 -1.17113 446.442 81.3684 456.09
lowerback 17.6603 -0.281656 -15.4995
upperback 6.24303 -2.59761 -4.34574
thorax -2.49496 -1.15598 4.506
lowerneck -22.7213 2.64808 1.02775
upperneck 29.0541 3.61087 0.666689
head 13.647 1.90371 0.776659
rclavicle 3.04141e-014 1.51076e-014
rhumerus -74.0146 18.8327 -90.6209
rradius 64.7708
rwrist -17.4174
rhand -23.3968 -26.4456
rfingers 7.12502
rthumb 3.05995 -56.4034
lclavicle 3.04141e-014 1.51076e-014
lhumerus -16.4424 -26.851 76.1296
lradius 81.2189
lwrist 9.71289
lhand -31.9426 -24.5263
lfingers 7.12502
lthumb -5.19326 5.39009
rfemur -31.0331 0.194796 10.2822
rtibia 73.2489
rfoot -14.4766 0.74175
rtoes 1.04266
lfemur -4.06535 4.89108 -29.1251
ltibia 41.9745
lfoot -19.2962 4.89762
ltoes 4.1005
82
root 15.735 16.5994 -1.15628 452.094 81.5661 462.059
lowerback 17.8119 -0.736349 -15.2963
upperback 6.33851 -3.16853 -4.22122
thorax -2.37147 -1.44909 4.63289
lowerneck -22.6126 2.72535 1.05554
upperneck 29.2816 3.77202 0.545123
head 13.7247 1.96206 0.755919
rclavicle -8.15017e-015 1.98785e-014
rhumerus -76.2944 19.3397 -90.3082
rradius 65.5218
rwrist -18.1168
rhand -22.9016 -26.6202
rfingers 7.12502
rthumb 3.53814 -56.5705
lclavicle -8.15017e-015 1.98785e-014
lhumerus -15.3118 -27.5246 75.5925
lradius 83.0175
lwrist 9.38976
lhand -31.6234 -24.119
lfingers 7.12502
lthumb -4.88514 5.80464
rfemur -30.7777 -0.392829 10.7729
rtibia 66.8069
rfoot -15.0622 -0.826106
rtoes 1.76964
lfemur -1.78906 4.56679 -28.7247
ltibia 41.2866
lfoot -19.3595 4.97424
ltoes 0.984352
83
root 16.1473 16.6676 -1.15112 458.833 81.9008 468.875
lowerback 17.7935 -1.24032 -14.6487
upperback 6.28088 -3.73418 -4.06497
thorax -2.36814 -1.72952 4.54897
lowerneck -22.441 2.75358 0.941208
upperneck 29.6135 3.87159 0.593408
head 13.8264 2.00462 0.816661
rclavicle -1.92821e-014 -3.26007e-014
rhumerus -78.7313 19.5605 -89.8806
rradius 66.3967
rwrist -18.8214
rhand -22.5268 -27.0241
rfingers 7.12502
rthumb 3.90004 -56.9682
lclavicle -1.92821e-014 -3.26007e-014
lhumerus -14.1237 -28.6248 74.9957
lradius 84.5364
lwrist 9.26607
lhand -31.5121 -23.8072
lfingers 7.12502
lthumb -4.77762 6.1189
rfemur -30.3419 -1.09042 11.339
rtibia 59.9748
rfoot -15.1221 -2.28529
rtoes 3.66866
lfemur 0.275693 3.93946 -28.1193
ltibia 40.5042
lfoot -19.5285 4.83964
ltoes 0.897114
84
root 16.57 16.7418 -1.15025 464.796 81.9212 475.088
lowerback 17.9239 -1.67569 -14.2875
upperback 6.17974 -4.28799 -3.93493
thorax -2.47437 -1.99564 4.59659
lowerneck -22.1977 2.86379 0.892805
upperneck 29.9397 4.07912 0.611437
head 13.9132 2.09789 0.872789
rclavicle 4.51241e-014 -5.56597e-015
rhumerus -81.2583 19.7698 -89.3215
rradius 67.4673
rwrist -19.5499
rhand -21.9307 -27.8131
rfingers 7.12502
rthumb 4.47572 -57.7458
lclavicle 4.51241e-014 -5.56597e-015
lhumerus -13.1452 -29.6903 74.4898
lradius 85.966
lwrist 9.13073
lhand -31.5842 -23.4478
lfingers 7.12502
lthumb -4.84722 6.47676
rfemur -28.961 -1.67442 11.5103
rtibia 52.3
rfoot -14.6308 -3.52793
rtoes 8.09345
lfemur 2.67646 3.34486 -27.7451
ltibia 39.4586
lfoot -19.6127 4.38961
ltoes 1.66308
85
root 16.9839 16.8072 -1.14361 473.184 81.581 483.451
lowerback 17.9718 -2.27108 -14.0569
upperback 6.02062 -5.06571 -3.78226
thorax -2.54775 -2.37486 4.77312
lowerneck -22.1974 3.04234 0.942136
upperneck 30.322 4.34556 0.624624
head 14.0798 2.22303 0.927605
rclavicle -1.78906e-015 -3.10104e-014
rhumerus -83.5007 19.9767 -88.5629
rradius 68.5021
rwrist -20.0756
rhand -21.5878 -28.1251
rfingers 7.12502
rthumb 4.80682 -58.0506
lclavicle -1.78906e-015 -3.10104e-014
lhumerus -12.3739 -30.5865 73.9658
lradius 87.4185
lwrist 9.2933
lhand -31.5583 -23.851
lfingers 7.12502
lthumb -4.82227 6.07412
rfemur -27.2739 -2.55968 11.3952
rtibia 44.1747
rfoot -13.2987 -4.66864
rtoes 12.0443
lfemur 4.5837 2.42554 -27.4981
ltibia 38.6376
lfoot -19.6631 3.4851
ltoes 2.8277
86
root 17.4089 16.8746 -1.14766 479.154 81.1929 489.328
lowerback 17.7331 -2.79394 -13.7869
upperback 5.87774 -5.69424 -3.64163
thorax -2.48439 -2.69254 4.86779
lowerneck -22.5585 3.20926 1.13247
upperneck 31.0803 4.65427 0.364593
head 14.5073 2.33873 0.874221
rclavicle 2.54444e-014 4.53229e-014
rhumerus -85.4967 20.1502 -87.6399
rradius 69.3527
rwrist -20.3876
rhand -21.9533 -27.5051
rfingers 7.12502
rthumb 4.45385 -57.4382
lclavicle 2.54444e-014 4.53229e-014
lhumerus -11.6877 -31.5163 73.4031
lradius 88.9118
lwrist 9.40473
lhand -31.6659 -24.4376
lfingers 7.12502
lthumb -4.9261 5.48518
rfemur -25.2229 -3.0663 11.1592
rtibia 35.9766
rfoot -12.4346 -5.20166
rtoes 12.0609
lfemur 6.43083 1.65185 -27.3189
ltibia 37.8133
lfoot -19.6854 2.78739
ltoes 3.87129
87
root 17.8433 16.9384 -1.16044 483.969 80.6477 493.985
lowerback 17.2874 -3.28766 -13.5949
upperback 5.68216 -6.27573 -3.48117
thorax -2.36619 -2.99266 4.99796
lowerneck -22.6261 3.23969 0.947069
upperneck 31.5921 4.83744 0.30449
head 14.7492 2.3877 0.93025
rclavicle 4.06515e-014 -2.38542e-014
rhumerus -87.478 20.498 -86.7007
rradius 70.0908
rwrist -20.5419
rhand -22.3229 -27.1096
rfingers 7.12502
rthumb 4.09694 -57.05
lclavicle 4.06515e-014 -2.38542e-014
lhumerus -11.2991 -32.2937 73.06
lradius 90.6506
lwrist 8.9991
lhand -31.9148 -24.5177
lfingers 7.12502
lthumb -5.16651 5.39934
rfemur -23.1278 -3.38523 10.711
rtibia 28.1944
rfoot -11.3759 -5.70781
rtoes 14.5665
lfemur 8.12841 0.924794 -27.3091
ltibia 37.127
lfoot -19.5545 2.47002
ltoes 2.74827
